# xmcd
#
# Track frame offsets:
#	150
#	16928
#	30582
#	39948
#	53821
#	65258
#	87670
#	102637
#	114797
#	130349
#	138124
#	155634
#
# Disc length: 2270 seconds
#
# Revision: 1
# Processed by: cddbd v1.5.2PL0 Copyright (c) Steve Scherf et al.
# Submitted via: audiograbber 1.83.01
#
DISCID=9708dc0c
DTITLE=Los Agentos - Afrykanski Snieg
DYEAR=2009
DGENRE=CD
TTITLE0=La Neige Africaine
TTITLE1=Linia 129
TTITLE2=Pelna Kontrola
TTITLE3=Vinyl
TTITLE4=Be My Hasband
TTITLE5=Afrykanski Snieg
TTITLE6=Przeszlo Mi
TTITLE7=Broke My Baby`s  Heart
TTITLE8=Pasazer
TTITLE9=Sopot
TTITLE10=W Moim Malym Miescie
TTITLE11=Leniwiec
EXTD=
EXTT0=
EXTT1=
EXTT2=
EXTT3=
EXTT4=
EXTT5=
EXTT6=
EXTT7=
EXTT8=
EXTT9=
EXTT10=
EXTT11=
PLAYORDER=
